<svg width="116" height="25" viewBox="0 0 116 25" fill="none" xmlns="http://www.w3.org/2000/svg">
<g clip-path="url(#clip0_1_284)">
<path d="M0 12.3131V24.6162H2.51007H5.02014V19.6162V14.5867L6.94384 14.6457L8.86754 14.7048L11.82 19.6457L14.7518 24.5867L17.6425 24.6162C19.2062 24.6162 20.5023 24.5768 20.5023 24.5178C20.5023 24.4587 19.165 22.1753 17.5499 19.4489C15.9143 16.7225 14.5563 14.4489 14.5152 14.38C14.4741 14.3013 14.9678 14.006 15.6365 13.6812C17.1693 12.9528 18.7124 11.5847 19.3707 10.3446C20.2863 8.58275 20.3377 5.48236 19.453 3.83866C18.5375 2.1359 16.3978 0.698887 14.042 0.216602C13.3733 0.0788078 10.4209 -0.00976753 6.47063 -0.00976753H0V12.3131ZM13.3219 4.61622C14.4741 5.11819 15.0604 6.01386 15.0604 7.31307C15.0604 8.51386 14.5358 9.43905 13.5585 9.95086C12.9721 10.2461 12.2417 10.3249 8.96013 10.3741L5.03043 10.4528V7.32291V4.19298H8.7441C11.9434 4.21267 12.5709 4.27173 13.3219 4.61622Z" fill="black"/>
<path d="M79.8799 12.5197V24.626H82.2871H84.6943V12.5197V0.413372H82.2871H79.8799V12.5197Z" fill="black"/>
<path d="M106.472 11.7517C106.534 21.0824 106.534 21.1217 107.017 22.0568C107.563 23.1198 108.859 24.3205 109.908 24.7339C110.361 24.9111 111.41 25.0095 112.912 25.0095H115.216V23.0115V21.0135H113.879C112.861 21.0135 112.439 20.915 111.996 20.5902L111.451 20.1867V15.482V10.8068H113.334H115.216V8.90716V7.00755H113.334H111.451V4.70441V2.40126H108.921H106.411L106.472 11.7517Z" fill="black"/>
<path d="M26.9318 6.98832C25.2344 7.52965 24.0823 8.21863 22.8581 9.44895C21.6031 10.7482 21.0167 11.7521 20.5949 13.4548C19.4736 18.0218 21.531 22.3919 25.7179 24.2915C27.0141 24.8919 27.1787 24.9214 29.7916 24.9214C32.1268 24.9214 32.6823 24.8623 33.7213 24.4489C35.1821 23.8879 37.1367 22.2442 37.9082 20.8859L38.4534 19.9115L36.7766 18.9765C35.8611 18.4549 35.0278 18.0415 34.9352 18.0415C34.8529 18.0415 34.4929 18.445 34.1225 18.9174C33.2893 20.0789 32.1577 20.7777 30.7792 21.0434C29.555 21.2698 28.6601 21.1419 27.6005 20.6202C26.3454 20.0198 25.0904 18.445 25.0904 17.4411C25.0904 17.0375 25.1727 17.0375 31.9931 17.0375H38.8958V15.3643C38.8958 11.5257 37.0441 8.69107 33.567 7.22454C32.0754 6.55525 28.6189 6.45682 26.9318 6.98832ZM32.5795 10.8958C33.1247 11.26 33.6493 11.8308 33.9785 12.5001L34.5237 13.5238L29.8842 13.5828C27.333 13.6123 25.2036 13.5828 25.1418 13.5238C24.8538 13.2482 26.3557 11.4568 27.405 10.8564C28.4749 10.2265 28.6601 10.197 30.1517 10.256C31.4685 10.3151 31.8491 10.3938 32.5795 10.8958Z" fill="black"/>
<path d="M64.8503 6.91931C62.1551 7.64766 59.6656 9.54725 58.6472 11.6831C57.9168 13.248 57.5979 15.6496 57.9168 17.4606C58.7295 22.1949 62.3814 25.0295 67.741 25.0295C70.8786 25.0295 72.9669 24.3012 74.9935 22.5689C76.1662 21.5453 76.9583 20.2658 77.4727 18.5433C77.915 17.0768 77.8122 13.8091 77.2875 12.4114C76.4234 10.1477 74.1499 8.0512 71.5781 7.17521C69.9836 6.61419 66.4654 6.48624 64.8503 6.91931ZM69.9425 11.3878C72.8743 12.628 73.8413 16.3681 71.8662 18.8484C70.4671 20.6103 67.5147 21.2697 65.5293 20.2756C64.4491 19.7146 63.2661 18.4744 62.9369 17.5099C62.5151 16.3091 62.762 14.1732 63.4204 13.2382C64.9018 11.0925 67.4736 10.374 69.9425 11.3878Z" fill="black"/>
<path d="M38.7518 7.29322C38.8135 7.43102 40.4903 11.3976 42.4758 16.0924L46.0969 24.6357L48.3703 24.5767L50.6438 24.5176L54.1723 16.2105C56.1166 11.6436 57.7625 7.7066 57.8345 7.44086L57.9682 6.97826L55.417 7.03732L52.8452 7.09637L50.6232 12.7361C49.4093 15.8365 48.3497 18.3168 48.288 18.2381C48.2057 18.1594 47.177 15.6003 45.9837 12.5393L43.8131 6.99794H41.2207C39.1324 7.01763 38.6592 7.07668 38.7518 7.29322Z" fill="black"/>
<path d="M87.1941 12.4804C87.1941 15.5611 87.297 18.4548 87.4307 19.1241C87.8833 21.565 89.2515 23.2481 91.5764 24.3012C92.9138 24.9016 93.0681 24.9312 95.7839 24.9312C98.438 24.9312 98.6849 24.8918 99.8576 24.3701C102.183 23.3367 103.664 21.506 104.116 19.1339C104.25 18.4745 104.353 15.5709 104.353 12.4902V7.02761H101.977H99.5696L99.5078 12.4705C99.4461 17.6969 99.4255 17.9725 98.9626 18.7697C98.294 19.9705 97.1624 20.4922 95.4753 20.3937C93.9733 20.315 93.1092 19.8229 92.5229 18.691C92.1731 18.0119 92.1319 17.3327 92.0702 12.4607L92.0085 7.01777H89.6013H87.225V12.4804H87.1941Z" fill="black"/>
</g>
<defs>
<clipPath id="clip0_1_284">
<rect width="115.216" height="25" fill="white"/>
</clipPath>
</defs>
</svg>
